 <svg  version="1.0" xmlns="http://www.w3.org/2000/svg"  width="856.000000pt" height="590.000000pt" viewBox="0 0 856.000000 590.000000"  preserveAspectRatio="xMidYMid meet">  <g transform="translate(0.000000,590.000000) scale(0.050000,-0.050000)" fill="#000000" stroke="none"> <path d="M0 8700 l0 -3100 4500 0 4500 0 0 3100 0 3100 -4500 0 -4500 0 0 -3100z m8980 0 l0 -3080 -4480 0 -4480 0 0 3080 0 3080 4480 0 4480 0 0 -3080z"/> <path d="M8062 10770 c37 -62 39 -79 18 -165 -46 -188 -46 -219 1 -302 l45 -80 -61 -77 c-120 -151 -133 -157 -209 -100 -167 125 -389 168 -564 108 l-92 -32 0 63 c0 34 14 77 31 96 44 48 41 133 -8 239 -23 50 -42 122 -43 161 0 65 -46 163 -64 139 -25 -32 -99 -284 -87 -296 8 -7 23 2 33 21 27 47 58 44 58 -6 0 -23 14 -68 31 -102 48 -92 22 -136 -44 -75 -51 47 -52 47 -29 3 12 -24 42 -54 65 -66 82 -45 2 -257 -98 -259 -32 0 -33 106 -1 194 21 56 19 76 -10 124 -19 32 -34 89 -34 127 0 76 -28 108 -149 173 -85 44 -138 29 -92 -27 20 -23 20 -59 1 -170 -36 -214 28 -343 180 -364 88 -12 73 -79 -36 -162 -337 -257 -498 -544 -699 -1246 l-35 -122 0 182 c0 109 -11 207 -28 247 -24 57 -23 69 4 100 84 94 58 238 -80 439 -92 133 -106 132 -106 -11 0 -64 -10 -127 -23 -139 -74 -74 -12 -255 106 -317 69 -35 105 -184 94 -385 -12 -203 37 -201 112 6 140 385 351 598 619 625 172 17 234 -10 265 -117 44 -152 233 -205 378 -107 l59 40 -66 6 c-45 5 -89 31 -140 85 -124 129 -500 178 -673 88 -81 -42 -84 -23 -7 35 95 73 226 136 387 187 526 167 905 389 1058 618 39 60 89 114 112 121 178 57 137 352 -69 495 -135 93 -162 95 -110 5z m174 -186 c7 -48 -53 -253 -70 -237 -5 5 -12 26 -16 46 -4 20 -9 42 -11 47 -6 18 3 129 14 166 14 50 76 34 83 -22z m-1343 -178 c15 -75 33 -153 39 -173 9 -29 -2 -25 -50 18 -63 56 -85 185 -50 278 19 49 30 27 61 -123z m86 -41 c1 -14 -8 -25 -19 -25 -11 0 -20 8 -20 18 0 9 -5 47 -10 85 l-10 67 29 -60 c16 -33 30 -71 30 -85z m661 -267 c97 -25 230 -104 230 -136 0 -35 -237 -162 -476 -254 -617 -241 -681 -275 -832 -446 -64 -73 -142 -168 -172 -212 -64 -93 -57 -60 33 169 92 233 190 376 386 568 204 199 237 194 133 -17 -64 -129 -121 -189 -338 -355 -105 -80 -178 -170 -99 -122 270 165 518 414 618 621 105 216 225 259 517 184z m-520 -108 c-26 -69 -79 -170 -89 -170 -25 0 20 156 53 185 54 46 59 44 36 -15z m-1029 -672 c3 -77 -15 -112 -33 -67 -25 63 -21 133 7 124 14 -5 26 -30 26 -57z"/> <path d="M7940 9920 c0 -12 21 -54 47 -95 38 -62 93 -190 93 -218 0 -4 -13 -7 -30 -7 -101 0 -135 -148 -82 -350 17 -65 20 -121 9 -160 -38 -132 -6 -122 111 35 146 197 175 392 64 434 -40 15 -90 150 -65 174 19 20 93 -64 93 -105 0 -28 11 -48 25 -47 72 10 100 -32 127 -189 13 -76 13 -77 -39 -64 -64 16 -67 -4 -14 -104 21 -41 45 -92 53 -114 10 -32 18 -22 39 50 14 50 40 126 57 170 75 197 1 370 -158 370 -79 0 -215 89 -258 169 -37 68 -72 93 -72 51z m187 -525 c-18 -177 -33 -198 -85 -114 -50 82 -52 118 -13 170 27 36 30 29 33 -81 l4 -120 14 100 c13 96 36 170 52 170 4 0 2 -56 -5 -125z"/> <path d="M2067 9262 c-13 -68 -80 -129 -218 -198 -107 -54 -138 -115 -121 -242 13 -101 -78 -263 -130 -231 -10 6 -38 -3 -62 -20 l-45 -31 48 0 c115 0 -102 -113 -239 -124 -121 -10 -126 -9 -70 16 33 14 83 27 110 27 102 3 218 81 120 81 -11 0 -20 -9 -20 -20 0 -11 -31 -20 -70 -20 -114 0 -262 -69 -415 -193 -203 -166 -237 -187 -310 -187 -36 0 -65 -9 -65 -20 0 -33 120 -23 246 22 l118 42 56 -54 c50 -47 186 -83 346 -89 9 -1 -26 48 -78 108 -114 132 -171 150 -286 90 -114 -60 -122 -38 -18 45 140 112 390 147 623 86 63 -16 130 -30 149 -30 52 0 124 -121 124 -207 0 -84 -71 -173 -136 -173 -66 0 -138 -74 -153 -155 -7 -41 -22 -100 -35 -131 -32 -82 -2 -91 66 -18 33 35 77 64 97 64 74 0 130 69 131 163 2 87 74 239 97 202 44 -71 48 -257 6 -302 -58 -62 -54 -214 7 -312 52 -85 88 -93 71 -16 -7 37 2 74 29 115 50 75 51 151 3 212 -21 27 -42 94 -47 151 -6 61 -38 159 -79 242 l-70 140 175 11 c96 6 200 24 232 41 128 66 349 -373 235 -468 -147 -122 -107 -318 94 -461 74 -53 85 -43 49 45 -22 51 -25 90 -11 148 31 134 23 203 -29 253 -33 33 -50 75 -57 146 -6 55 -17 118 -26 140 -9 22 42 -14 113 -80 211 -195 918 -479 918 -369 0 24 6 22 -240 79 -190 44 -497 169 -474 193 17 17 228 -25 425 -83 258 -78 451 -274 382 -390 -46 -78 -41 -153 17 -252 77 -131 258 -230 197 -107 -26 51 -27 75 -5 159 31 122 5 193 -82 226 -33 13 -65 38 -71 56 -23 73 -135 203 -224 259 -106 68 -111 66 162 68 168 1 209 40 227 217 13 123 -3 141 -65 73 -20 -22 -75 -58 -123 -79 -68 -30 -89 -51 -99 -99 -7 -34 -24 -61 -39 -61 -16 0 -32 -1 -38 -3 -85 -28 -210 -26 -319 4 -183 51 -402 72 -380 38 26 -42 -93 50 -178 137 l-77 79 87 -20 c48 -11 111 -32 140 -47 166 -87 297 21 297 244 0 90 -1 93 -37 61 -20 -19 -77 -45 -125 -59 -65 -19 -101 -45 -136 -100 -66 -101 -170 -89 -337 39 -62 47 -53 139 12 122 7 -2 65 16 128 41 268 102 584 68 636 -68 53 -140 255 -197 386 -108 77 53 92 80 43 80 -16 0 -64 30 -105 67 -124 111 -156 122 -256 84 -81 -31 -90 -31 -153 3 -102 55 -414 51 -541 -8 l-95 -44 63 79 c47 58 79 79 119 79 168 0 235 114 196 333 -28 161 -41 176 -77 90 -13 -32 -68 -100 -122 -152 -91 -87 -99 -103 -99 -187 0 -86 -8 -101 -113 -207 l-114 -115 -71 56 c-134 105 -187 122 -383 122 l-183 0 37 62 c31 53 51 63 125 69 187 13 267 136 256 394 -8 188 -26 241 -47 137z m-41 -248 c-90 -147 -186 -252 -186 -202 0 28 169 245 184 236 9 -6 10 -21 2 -34z m763 -159 c-8 -25 -22 -48 -32 -52 -9 -3 -12 -15 -6 -25 6 -10 -3 -18 -20 -18 -17 0 -32 -11 -33 -25 -1 -18 -4 -18 -11 -1 -10 25 73 165 99 166 9 0 10 -20 3 -45z m-719 -322 c55 -18 127 -54 159 -80 l59 -48 -119 -34 c-130 -38 -400 -37 -425 2 -21 32 -143 91 -170 82 -13 -5 3 -24 36 -43 55 -31 56 -33 10 -23 -27 6 -71 11 -97 11 -42 0 -37 9 47 85 l95 86 152 -2 c85 -1 198 -17 253 -36z m1386 -68 c37 -50 -2 -56 -107 -16 -129 50 -137 80 -17 64 57 -8 109 -28 124 -48z m-46 -76 c54 -12 56 -15 20 -30 -62 -25 -75 -22 -150 43 l-70 61 70 -30 c39 -17 97 -37 130 -44z m-443 -145 c-6 -24 -23 -44 -38 -44 -14 0 -29 -9 -33 -21 -4 -14 -24 -15 -54 -4 -46 17 -44 20 40 70 100 59 100 59 85 -1z m769 -274 c-21 -48 -74 -66 -104 -36 -16 17 66 85 103 86 19 0 19 -11 1 -50z m2 -646 c16 -30 16 -44 2 -44 -26 0 -61 87 -58 146 1 40 3 39 17 -7 9 -28 26 -71 39 -95z"/> <path d="M5580 9053 c0 -15 -45 -89 -100 -163 l-100 -136 13 -157 c10 -129 7 -164 -19 -193 -36 -39 -112 -208 -154 -339 -33 -105 -137 -231 -219 -265 -34 -14 -61 -33 -61 -42 0 -10 -33 -18 -74 -18 -148 0 -33 -36 144 -45 237 -12 437 -92 418 -167 -41 -161 231 -217 429 -88 121 78 125 91 38 105 -36 6 -116 34 -179 63 -130 59 -181 65 -216 22 -33 -39 -53 -38 -117 8 -29 20 -71 42 -93 47 -29 8 -24 11 19 13 114 4 379 88 426 135 40 40 63 45 194 43 98 -2 174 8 225 29 42 18 109 38 150 44 118 20 192 156 164 304 l-13 70 -63 -62 c-35 -33 -77 -61 -94 -61 -73 0 -121 -62 -115 -147 8 -104 -39 -132 -220 -133 l-128 0 88 105 c145 173 258 379 241 440 -6 23 245 18 388 -7 119 -20 127 -26 149 -90 40 -123 222 -168 354 -88 90 55 85 63 -86 151 -131 67 -156 74 -191 52 -33 -20 -65 -19 -179 9 -453 110 -833 -30 -1148 -424 -77 -97 -181 -206 -231 -242 -49 -37 -101 -76 -115 -87 -13 -11 -47 -14 -75 -7 -50 12 -49 14 35 67 92 58 176 193 247 399 56 159 162 271 231 245 158 -61 364 94 390 292 l12 95 -69 -66 c-38 -36 -103 -75 -145 -86 -74 -21 -144 -75 -183 -141 -25 -43 -108 -68 -108 -33 0 40 58 116 89 116 108 0 177 220 118 374 -31 83 -67 114 -67 59z m-20 -343 c-25 -40 -49 -68 -55 -62 -5 5 10 42 35 82 25 40 49 68 55 62 5 -5 -10 -42 -35 -82z m538 -304 c-44 -118 -142 -281 -218 -364 -44 -48 -80 -95 -80 -105 0 -9 -34 -17 -75 -17 -90 -1 -214 -55 -291 -127 -33 -31 -79 -53 -111 -53 -30 0 -65 -10 -78 -23 -12 -12 -38 -16 -56 -9 -28 10 -20 23 44 69 43 31 119 105 168 164 260 310 530 519 671 519 43 0 45 -5 26 -54z m-417 -562 c-57 -40 -201 -86 -201 -64 0 19 179 99 220 98 20 0 13 -12 -19 -34z m49 -321 c36 -20 35 -22 -20 -21 -59 0 -204 53 -154 56 15 1 21 10 15 20 -22 35 39 37 79 2 22 -19 58 -44 80 -57z"/> <path d="M6717 8880 c-35 -33 -82 -60 -105 -60 -113 -2 -373 -183 -371 -259 0 -20 19 -9 55 32 132 153 335 225 391 139 55 -84 169 -72 347 36 147 88 161 112 68 112 -29 0 -88 14 -132 29 -124 45 -183 38 -253 -29z"/> <path d="M3238 8787 c-28 -18 -75 -71 -103 -117 l-51 -85 49 -23 c39 -18 59 -16 93 8 56 39 183 39 222 -1 36 -36 73 -22 197 76 90 70 97 103 17 85 -40 -8 -96 4 -179 39 -141 59 -174 62 -245 18z m172 -47 c65 -2 -5 -32 -109 -48 l-89 -14 38 42 c25 28 53 39 79 32 23 -7 59 -12 81 -12z m50 -90 c-50 -29 -239 -43 -212 -15 12 11 97 26 242 41 11 2 -2 -10 -30 -26z"/> <path d="M4421 8473 c-11 -29 -44 -73 -73 -98 -84 -71 -114 -160 -87 -261 l23 -84 -112 -104 c-122 -113 -300 -186 -456 -186 -53 0 -77 -8 -71 -24 10 -30 162 -23 282 11 114 33 469 29 533 -6 77 -42 81 -62 29 -152 -67 -113 -63 -133 51 -259 55 -61 100 -129 100 -151 0 -64 34 -28 49 52 15 83 -2 155 -34 136 -12 -8 -15 -4 -7 9 7 13 0 50 -17 82 -17 33 -31 87 -31 120 0 33 -9 65 -20 72 -11 7 -20 26 -20 44 0 28 5 28 45 1 28 -19 43 -46 39 -73 -4 -27 4 -42 25 -42 17 0 31 -10 31 -21 0 -12 9 -16 19 -10 10 7 28 -6 40 -27 30 -55 26 -71 -9 -42 -19 16 -30 17 -30 4 0 -12 20 -36 45 -54 39 -29 40 -32 7 -27 -37 7 -56 30 -84 107 -13 36 -15 36 -23 5 -12 -52 64 -145 164 -201 99 -56 117 -52 90 19 -11 27 -19 90 -19 139 0 101 -65 188 -141 188 -24 0 -68 18 -99 40 -31 22 -102 55 -158 73 l-101 33 141 47 c77 26 163 62 190 80 42 28 58 29 97 7 208 -111 389 204 269 467 -32 70 -41 67 -88 -32 -29 -60 -58 -89 -104 -104 -94 -31 -129 -75 -141 -178 -7 -66 -23 -100 -56 -122 -78 -51 -394 -147 -513 -156 l-114 -8 86 67 c47 36 97 89 112 116 17 32 44 50 74 50 145 0 202 132 147 343 -44 166 -54 179 -80 110z m-65 -244 c-42 -92 -46 -95 -52 -44 -4 36 10 76 40 112 62 76 66 51 12 -68z m66 34 c-12 -22 -22 -67 -22 -99 0 -33 -12 -69 -27 -82 -23 -18 -23 -7 -2 73 32 120 51 169 63 158 5 -5 0 -28 -12 -50z m484 -123 c-51 -72 -109 -115 -74 -55 42 73 93 135 111 135 11 0 -6 -36 -37 -80z m143 61 c7 -11 -20 -61 -58 -112 -39 -50 -71 -99 -71 -108 0 -30 -56 -39 -67 -11 -22 57 166 279 196 231z"/> </g> </svg> 